<svg xmlns="http://www.w3.org/2000/svg" xmlns:xlink="http://www.w3.org/1999/xlink" version="1.1" width="256" height="256" viewBox="0 0 256 256" xml:space="preserve">
<g style="stroke: none; stroke-width: 0; stroke-dasharray: none; stroke-linecap: butt; stroke-linejoin: miter; stroke-miterlimit: 10; fill: none; fill-rule: nonzero; opacity: 1;" transform="translate(1.4065934065934016 1.4065934065934016) scale(2.81 2.81)">
	<circle cx="45" cy="45" r="45" style="stroke: none; stroke-width: 1; stroke-dasharray: none; stroke-linecap: butt; stroke-linejoin: miter; stroke-miterlimit: 10; fill: rgb(60,90,153); fill-rule: nonzero; opacity: 1;" transform="  matrix(1 0 0 1 0 0) "/>
	<path d="M 0.052 47.076 C 1.138 70.965 20.844 90 45 90 c 24.853 0 45 -20.147 45 -45 c 0 -0.836 -0.027 -1.666 -0.072 -2.491 C 61.696 25.626 24.768 66.131 0.052 47.076 z" style="stroke: none; stroke-width: 1; stroke-dasharray: none; stroke-linecap: butt; stroke-linejoin: miter; stroke-miterlimit: 10; fill: rgb(49,79,141); fill-rule: nonzero; opacity: 1;" transform=" matrix(1 0 0 1 0 0) " stroke-linecap="round"/>
	<path d="M 53.98 27.328 l 5.107 -0.002 v -8.672 c -0.883 -0.118 -3.915 -0.382 -7.442 -0.382 c -7.363 0 -12.405 4.518 -12.405 12.816 v 7.15 h -8.328 v 9.696 h 8.328 v 23.794 h 9.96 V 47.934 h 8.307 l 1.244 -9.696 h -9.55 v -6.19 C 49.201 29.241 49.976 27.328 53.98 27.328 z" style="stroke: none; stroke-width: 1; stroke-dasharray: none; stroke-linecap: butt; stroke-linejoin: miter; stroke-miterlimit: 10; fill: rgb(255,255,255); fill-rule: nonzero; opacity: 1;" transform=" matrix(1 0 0 1 0 0) " stroke-linecap="round"/>
</g>
</svg>